<?xml version="1.0" standalone="no"?>
<!DOCTYPE svg PUBLIC "-//W3C//DTD SVG 20010904//EN"
 "http://www.w3.org/TR/2001/REC-SVG-20010904/DTD/svg10.dtd">
<svg version="1.0" xmlns="http://www.w3.org/2000/svg"
 width="412.000000pt" height="412.000000pt" viewBox="0 0 412.000000 412.000000"
 preserveAspectRatio="xMidYMid meet">
<metadata>
Created by potrace 1.14, written by Peter Selinger 2001-2017
</metadata>
<g transform="translate(0.000000,412.000000) scale(0.100000,-0.100000)"
fill="#000000" stroke="none">
<path d="M2340 4097 c-3 -3 -36 -8 -75 -10 -169 -13 -407 -82 -574 -167 -366
-184 -663 -506 -811 -878 -151 -379 -161 -793 -29 -1182 33 -96 147 -330 161
-330 5 0 34 16 64 35 l54 35 -35 70 c-44 88 -88 219 -111 330 -21 101 -24 341
-5 440 93 507 477 916 965 1030 104 25 169 32 286 31 274 -1 497 -68 720 -216
79 -52 267 -233 310 -297 14 -21 28 -37 31 -35 26 9 569 354 569 360 0 8 -76
123 -90 137 -3 3 -41 45 -85 94 -238 265 -552 445 -904 516 -58 12 -121 23
-140 25 -72 8 -296 17 -301 12z"/>
<path d="M2080 3375 c-495 -78 -882 -469 -960 -969 -11 -73 -14 -251 -5 -324
11 -87 55 -233 94 -317 22 -47 42 -85 45 -85 3 0 30 15 59 33 l55 33 -25 74
c-23 66 -26 93 -27 220 -1 126 2 155 22 220 43 136 97 226 197 325 96 97 186
152 315 194 252 83 544 16 743 -168 l62 -58 270 169 c149 92 271 174 273 181
1 7 -24 44 -57 81 -276 312 -660 454 -1061 391z"/>
<path d="M3048 2552 l-57 -37 30 -59 c35 -68 81 -186 72 -186 -3 0 -1 -6 4
-12 9 -12 19 -43 29 -93 2 -11 6 -31 9 -45 33 -158 24 -401 -21 -563 -8 -29
-16 -59 -18 -67 -38 -146 -189 -389 -320 -515 -105 -102 -332 -256 -350 -238
-3 4 -6 2 -6 -4 0 -6 -8 -13 -17 -16 -10 -3 -48 -17 -85 -31 -38 -14 -68 -22
-68 -19 0 3 -6 1 -12 -5 -7 -5 -26 -12 -43 -15 -16 -3 -41 -8 -55 -11 -65 -15
-94 -18 -225 -21 -139 -4 -165 -2 -325 30 -41 8 -177 53 -202 66 -13 7 -29 14
-35 15 -16 3 -173 93 -189 108 -6 6 -22 18 -34 26 -77 51 -167 138 -245 235
-26 33 -49 61 -50 63 -4 5 -85 -39 -106 -58 -10 -8 -35 -24 -56 -35 -21 -11
-40 -22 -43 -25 -11 -12 -220 -140 -229 -140 -5 0 -11 -4 -13 -8 -2 -4 -31
-25 -66 -46 -34 -20 -62 -40 -62 -43 0 -8 74 -118 82 -121 5 -2 8 -8 8 -12 0
-11 15 -28 135 -150 71 -73 198 -178 301 -248 39 -27 264 -139 294 -147 3 0
41 -13 85 -27 94 -30 138 -41 214 -54 18 -3 43 -8 55 -10 43 -8 174 -17 261
-16 147 1 228 11 380 48 55 14 108 27 117 29 9 2 25 8 35 13 10 6 23 11 28 12
6 1 24 8 41 15 17 7 40 16 52 19 12 4 58 27 102 52 44 24 83 44 87 44 3 0 21
11 39 25 18 14 37 25 43 25 6 0 11 5 11 10 0 6 6 10 14 10 8 0 16 3 18 8 2 4
39 37 84 73 83 69 195 178 228 224 11 14 28 36 39 48 10 12 26 34 35 50 9 15
20 27 24 27 4 0 8 5 8 10 0 6 10 25 22 43 43 64 54 83 94 172 58 126 67 148
70 163 1 8 6 21 10 30 4 9 8 22 9 27 2 6 10 37 19 70 21 76 25 92 32 134 3 18
7 42 9 51 22 115 23 369 1 490 -3 14 -7 42 -10 62 -3 21 -15 73 -27 115 -12
43 -22 85 -24 93 -2 8 -4 16 -5 18 -2 1 -3 5 -5 10 -2 7 -13 36 -38 97 -6 17
-12 32 -12 35 -2 12 -89 179 -104 197 -16 21 -16 21 -73 -15z"/>
<path d="M2813 2404 c-29 -19 -53 -41 -53 -48 0 -7 7 -33 15 -57 26 -72 30
-108 29 -239 0 -115 -7 -180 -20 -202 -3 -5 -8 -20 -10 -35 -7 -35 -76 -168
-112 -213 -52 -65 -164 -170 -182 -170 -6 0 -10 -4 -10 -10 0 -16 -170 -93
-249 -111 -57 -14 -105 -17 -191 -15 -63 2 -125 6 -137 9 -82 20 -143 41 -143
49 0 5 -4 7 -8 4 -9 -5 -120 56 -161 89 -13 11 -44 39 -68 61 -30 29 -50 40
-63 37 -11 -3 -20 -8 -20 -12 0 -4 -17 -15 -37 -26 -21 -11 -40 -22 -43 -25
-3 -3 -48 -32 -100 -64 -52 -33 -111 -70 -131 -82 -19 -13 -40 -24 -47 -24 -7
0 -12 -4 -12 -8 0 -5 -12 -15 -27 -23 -15 -8 -48 -28 -73 -45 -58 -38 -61 -29
66 -165 72 -77 129 -123 209 -171 39 -23 73 -47 77 -53 4 -5 8 -7 8 -2 0 4 24
-5 53 -20 28 -15 54 -28 57 -28 3 -1 42 -13 88 -28 87 -28 107 -33 199 -45 80
-10 254 -7 336 7 37 6 104 23 150 38 45 15 84 27 87 28 20 2 216 116 264 153
76 57 178 160 233 233 37 50 134 219 140 244 2 11 30 92 40 115 7 18 12 37 18
70 2 14 7 36 10 50 23 113 23 286 -1 425 -10 60 -41 158 -70 224 -14 31 -25
57 -24 59 1 3 -30 62 -33 61 -1 0 -26 -16 -54 -35z"/>
</g>
</svg>
